<svg width="18" height="19" viewBox="0 0 18 19" fill="none" xmlns="http://www.w3.org/2000/svg">
<g opacity="0.7">
<path fill-rule="evenodd" clip-rule="evenodd" d="M8.99998 7.24993C8.17156 7.24993 7.49998 7.9215 7.49998 8.74993C7.49998 9.57836 8.17156 10.2499 8.99998 10.2499C9.82841 10.2499 10.5 9.57836 10.5 8.74993C10.5 7.9215 9.82841 7.24993 8.99998 7.24993ZM5.99998 8.74993C5.99998 7.09308 7.34313 5.74993 8.99998 5.74993C10.6568 5.74993 12 7.09308 12 8.74993C12 10.4068 10.6568 11.7499 8.99998 11.7499C7.34313 11.7499 5.99998 10.4068 5.99998 8.74993Z" fill="white"/>
<path fill-rule="evenodd" clip-rule="evenodd" d="M9 3.50012C7.96166 3.50012 6.94664 3.80802 6.08329 4.38489C5.21994 4.96175 4.54703 5.78168 4.14966 6.74097C3.75229 7.70027 3.64831 8.75585 3.85086 9.77425C4.05341 10.7926 4.5534 11.7281 5.2876 12.4623L8.47031 15.6443C8.61095 15.7848 8.8016 15.8637 9.00038 15.8637C9.19916 15.8637 9.38981 15.7848 9.53044 15.6443L12.7124 12.4623C13.4466 11.7281 13.9466 10.7926 14.1491 9.77425C14.3517 8.75585 14.2477 7.70027 13.8503 6.74097C13.453 5.78168 12.7801 4.96175 11.9167 4.38489C11.0534 3.80802 10.0383 3.50012 9 3.50012ZM13.7731 13.523C14.7171 12.5789 15.3599 11.3762 15.6203 10.0669C15.8808 8.75749 15.7471 7.40031 15.2362 6.16693C14.7253 4.93355 13.8601 3.87936 12.7501 3.13768C11.64 2.39599 10.335 2.00012 9 2.00012C7.66499 2.00012 6.35996 2.39599 5.24994 3.13768C4.13992 3.87936 3.27475 4.93355 2.76385 6.16693C2.25295 7.40031 2.11925 8.75749 2.37968 10.0669C2.6401 11.3762 3.28294 12.5789 4.22691 13.523L7.40999 16.7053C7.83188 17.1268 8.40403 17.3637 9.00038 17.3637C9.59672 17.3637 10.1687 17.127 10.5906 16.7055L13.7731 13.523Z" fill="white"/>
</g>
</svg>
