<svg width="16" height="17" viewBox="0 0 16 17" fill="none" xmlns="http://www.w3.org/2000/svg">
<path fill-rule="evenodd" clip-rule="evenodd" d="M3.33308 4.50008C2.96489 4.50008 2.66641 4.79856 2.66641 5.16675V11.8334C2.66641 12.2016 2.96489 12.5001 3.33308 12.5001H12.6664C13.0346 12.5001 13.3331 12.2016 13.3331 11.8334V5.16675C13.3331 4.79856 13.0346 4.50008 12.6664 4.50008H3.33308ZM1.33308 5.16675C1.33308 4.06218 2.22851 3.16675 3.33308 3.16675H12.6664C13.771 3.16675 14.6664 4.06218 14.6664 5.16675V11.8334C14.6664 12.938 13.771 13.8334 12.6664 13.8334H3.33308C2.22851 13.8334 1.33308 12.938 1.33308 11.8334V5.16675Z" fill="white"/>
<path fill-rule="evenodd" clip-rule="evenodd" d="M1.44505 4.79692C1.64928 4.49057 2.06319 4.40779 2.36955 4.61202L7.99975 8.36549L13.6299 4.61202C13.9363 4.40779 14.3502 4.49057 14.5544 4.79692C14.7587 5.10328 14.6759 5.51719 14.3695 5.72142L8.36955 9.72142C8.14561 9.87071 7.85388 9.87071 7.62995 9.72142L1.62995 5.72142C1.32359 5.51719 1.24081 5.10328 1.44505 4.79692Z" fill="white"/>
</svg>
