<svg width="64" height="64" viewBox="0 0 64 64" fill="none" xmlns="http://www.w3.org/2000/svg">
<g filter="url(#filter0_dd_6935_1324)">
<circle cx="32" cy="24" r="16" fill="white"/>
</g>
<g clip-path="url(#clip0_6935_1324)">
<path d="M25 23.4814C25 25.5208 26.0173 27.3402 27.6081 28.5284V31L29.9916 29.6922C30.6274 29.8677 31.3012 29.9634 31.9994 29.9634C35.8652 29.9634 38.9994 27.0619 38.9994 23.482C39 19.9021 35.8657 17 32 17C28.1342 17 25 19.9015 25 23.4814V23.4814ZM31.2615 21.6661L33.0873 23.5672L36.5214 21.6661L32.6947 25.7273L30.9127 23.8267L27.4342 25.7278L31.2615 21.6661Z" fill="#FD5631"/>
</g>
<defs>
<filter id="filter0_dd_6935_1324" x="0" y="0" width="64" height="64" filterUnits="userSpaceOnUse" color-interpolation-filters="sRGB">
<feFlood flood-opacity="0" result="BackgroundImageFix"/>
<feColorMatrix in="SourceAlpha" type="matrix" values="0 0 0 0 0 0 0 0 0 0 0 0 0 0 0 0 0 0 127 0" result="hardAlpha"/>
<feOffset dy="8"/>
<feGaussianBlur stdDeviation="8"/>
<feColorMatrix type="matrix" values="0 0 0 0 0.121569 0 0 0 0 0.105882 0 0 0 0 0.176471 0 0 0 0.16 0"/>
<feBlend mode="normal" in2="BackgroundImageFix" result="effect1_dropShadow_6935_1324"/>
<feColorMatrix in="SourceAlpha" type="matrix" values="0 0 0 0 0 0 0 0 0 0 0 0 0 0 0 0 0 0 127 0" result="hardAlpha"/>
<feMorphology radius="6" operator="erode" in="SourceAlpha" result="effect2_dropShadow_6935_1324"/>
<feOffset dy="4"/>
<feGaussianBlur stdDeviation="6"/>
<feColorMatrix type="matrix" values="0 0 0 0 0.121569 0 0 0 0 0.105882 0 0 0 0 0.176471 0 0 0 0.2 0"/>
<feBlend mode="normal" in2="effect1_dropShadow_6935_1324" result="effect2_dropShadow_6935_1324"/>
<feBlend mode="normal" in="SourceGraphic" in2="effect2_dropShadow_6935_1324" result="shape"/>
</filter>
<clipPath id="clip0_6935_1324">
<rect width="14" height="14" fill="white" transform="translate(25 17)"/>
</clipPath>
</defs>
</svg>
