<svg width="18" height="19" viewBox="0 0 18 19" fill="none" xmlns="http://www.w3.org/2000/svg">
<path fill-rule="evenodd" clip-rule="evenodd" d="M8.99998 7.24981C8.17156 7.24981 7.49998 7.92138 7.49998 8.74981C7.49998 9.57824 8.17156 10.2498 8.99998 10.2498C9.82841 10.2498 10.5 9.57824 10.5 8.74981C10.5 7.92138 9.82841 7.24981 8.99998 7.24981ZM5.99998 8.74981C5.99998 7.09295 7.34313 5.74981 8.99998 5.74981C10.6568 5.74981 12 7.09295 12 8.74981C12 10.4067 10.6568 11.7498 8.99998 11.7498C7.34313 11.7498 5.99998 10.4067 5.99998 8.74981Z" fill="white"/>
<path fill-rule="evenodd" clip-rule="evenodd" d="M9 3.5C7.96166 3.5 6.94664 3.8079 6.08329 4.38477C5.21994 4.96163 4.54703 5.78155 4.14966 6.74085C3.75229 7.70015 3.64831 8.75573 3.85086 9.77412C4.05341 10.7925 4.5534 11.728 5.2876 12.4622L8.47031 15.6442C8.61095 15.7847 8.8016 15.8636 9.00038 15.8636C9.19916 15.8636 9.38981 15.7847 9.53044 15.6442L12.7124 12.4622C13.4466 11.728 13.9466 10.7925 14.1491 9.77412C14.3517 8.75573 14.2477 7.70015 13.8503 6.74085C13.453 5.78155 12.7801 4.96163 11.9167 4.38477C11.0534 3.8079 10.0383 3.5 9 3.5ZM13.7731 13.5228C14.7171 12.5788 15.3599 11.3761 15.6203 10.0667C15.8808 8.75737 15.7471 7.40019 15.2362 6.16681C14.7253 4.93343 13.8601 3.87924 12.7501 3.13756C11.64 2.39587 10.335 2 9 2C7.66499 2 6.35996 2.39587 5.24994 3.13756C4.13992 3.87924 3.27475 4.93343 2.76385 6.16681C2.25295 7.40019 2.11925 8.75737 2.37968 10.0667C2.6401 11.3761 3.28294 12.5788 4.22691 13.5228L7.40999 16.7052C7.83188 17.1266 8.40403 17.3636 9.00038 17.3636C9.59672 17.3636 10.1687 17.1268 10.5906 16.7054L13.7731 13.5228Z" fill="white"/>
</svg>
