<svg width="32" height="32" viewBox="0 0 32 32" fill="none" xmlns="http://www.w3.org/2000/svg">
<circle opacity="0.04" cx="16" cy="16" r="16" fill="white"/>
<g clip-path="url(#clip0_6153_1316)">
<path d="M21.5615 13.1492C22.1308 12.745 22.6097 12.2404 23 11.6594V11.6588C22.4791 11.8869 21.9249 12.0386 21.3463 12.1121C21.9412 11.7568 22.3957 11.1986 22.6092 10.526C22.0544 10.8567 21.4419 11.0901 20.7892 11.2207C20.2624 10.6596 19.5117 10.3125 18.6927 10.3125C17.1037 10.3125 15.8244 11.6022 15.8244 13.1831C15.8244 13.4106 15.8437 13.6293 15.8909 13.8376C13.5051 13.7209 11.3934 12.5776 9.97475 10.8352C9.72742 11.2651 9.58158 11.7568 9.58158 12.2859C9.58158 13.2799 10.0932 14.1607 10.8568 14.6712C10.3953 14.6624 9.94325 14.5282 9.56 14.3177V14.3492C9.56 15.7439 10.5546 16.9024 11.8595 17.1696C11.6256 17.2337 11.3712 17.2641 11.107 17.2641C10.9232 17.2641 10.7377 17.2536 10.5639 17.2151C10.9355 18.3514 11.9913 19.1873 13.2455 19.2147C12.269 19.9783 11.0288 20.4386 9.68658 20.4386C9.4515 20.4386 9.22575 20.4281 9 20.3995C10.2717 21.2191 11.7778 21.6875 13.403 21.6875C18.4681 21.6875 21.7692 17.4618 21.5615 13.1492Z" fill="white"/>
</g>
<defs>
<clipPath id="clip0_6153_1316">
<rect width="14" height="14" fill="white" transform="translate(9 9)"/>
</clipPath>
</defs>
</svg>
