<svg width="20" height="20" viewBox="0 0 20 20" fill="none" xmlns="http://www.w3.org/2000/svg">
<path fill-rule="evenodd" clip-rule="evenodd" d="M8 2.00098C4.68629 2.00098 2 4.68727 2 8.00098C2 11.3147 4.68629 14.001 8 14.001C11.3137 14.001 14 11.3147 14 8.00098C14 4.68727 11.3137 2.00098 8 2.00098ZM0 8.00098C0 3.5827 3.58172 0.000976562 8 0.000976562C12.4183 0.000976562 16 3.5827 16 8.00098C16 12.4193 12.4183 16.001 8 16.001C3.58172 16.001 0 12.4193 0 8.00098Z" fill="#FD5631"/>
<path fill-rule="evenodd" clip-rule="evenodd" d="M12.2929 12.2939C12.6834 11.9033 13.3166 11.9033 13.7071 12.2939L19.7071 18.2939C20.0976 18.6844 20.0976 19.3176 19.7071 19.7081C19.3166 20.0986 18.6834 20.0986 18.2929 19.7081L12.2929 13.7081C11.9024 13.3176 11.9024 12.6844 12.2929 12.2939Z" fill="#FD5631"/>
</svg>
