<svg width="24" height="24" viewBox="0 0 24 24" fill="none" xmlns="http://www.w3.org/2000/svg">
<path fill-rule="evenodd" clip-rule="evenodd" d="M6 5.99999C5.44772 5.99999 5 6.44771 5 6.99999V19C5 19.5523 5.44772 20 6 20H18C18.5523 20 19 19.5523 19 19V6.99999C19 6.44771 18.5523 5.99999 18 5.99999H6ZM3 6.99999C3 5.34314 4.34315 3.99999 6 3.99999H18C19.6569 3.99999 21 5.34314 21 6.99999V19C21 20.6568 19.6569 22 18 22H6C4.34315 22 3 20.6568 3 19V6.99999Z" fill="black"/>
<path fill-rule="evenodd" clip-rule="evenodd" d="M16 2C16.5523 2 17 2.44772 17 3V7C17 7.55229 16.5523 8 16 8C15.4477 8 15 7.55229 15 7V3C15 2.44772 15.4477 2 16 2Z" fill="black"/>
<path fill-rule="evenodd" clip-rule="evenodd" d="M8.00004 2C8.55232 2 9.00004 2.44772 9.00004 3V7C9.00004 7.55229 8.55232 8 8.00004 8C7.44775 8 7.00004 7.55229 7.00004 7V3C7.00004 2.44772 7.44775 2 8.00004 2Z" fill="black"/>
<path fill-rule="evenodd" clip-rule="evenodd" d="M3 11C3 10.4477 3.44772 9.99999 4 9.99999H20C20.5523 9.99999 21 10.4477 21 11C21 11.5523 20.5523 12 20 12H4C3.44772 12 3 11.5523 3 11Z" fill="black"/>
</svg>
