<svg width="75" height="18" viewBox="0 0 75 18" fill="none" xmlns="http://www.w3.org/2000/svg">
<path fill-rule="evenodd" clip-rule="evenodd" d="M3.5 5.49995C3.17783 5.49995 2.91667 5.76112 2.91667 6.08329V13.0833C2.91667 13.4055 3.17783 13.6666 3.5 13.6666H10.5C10.8222 13.6666 11.0833 13.4055 11.0833 13.0833V6.08329C11.0833 5.76112 10.8222 5.49995 10.5 5.49995H3.5ZM1.75 6.08329C1.75 5.11679 2.5335 4.33329 3.5 4.33329H10.5C11.4665 4.33329 12.25 5.11679 12.25 6.08329V13.0833C12.25 14.0498 11.4665 14.8333 10.5 14.8333H3.5C2.5335 14.8333 1.75 14.0498 1.75 13.0833V6.08329Z" fill="white" fill-opacity="0.7"/>
<path fill-rule="evenodd" clip-rule="evenodd" d="M9.33333 3.16663C9.6555 3.16663 9.91667 3.42779 9.91667 3.74996V6.08329C9.91667 6.40546 9.6555 6.66663 9.33333 6.66663C9.01117 6.66663 8.75 6.40546 8.75 6.08329V3.74996C8.75 3.42779 9.01117 3.16663 9.33333 3.16663Z" fill="white" fill-opacity="0.7"/>
<path fill-rule="evenodd" clip-rule="evenodd" d="M4.66669 3.16663C4.98885 3.16663 5.25002 3.42779 5.25002 3.74996V6.08329C5.25002 6.40546 4.98885 6.66663 4.66669 6.66663C4.34452 6.66663 4.08335 6.40546 4.08335 6.08329V3.74996C4.08335 3.42779 4.34452 3.16663 4.66669 3.16663Z" fill="white" fill-opacity="0.7"/>
<path fill-rule="evenodd" clip-rule="evenodd" d="M1.75 8.41662C1.75 8.09445 2.01117 7.83329 2.33333 7.83329H11.6667C11.9888 7.83329 12.25 8.09445 12.25 8.41662C12.25 8.73879 11.9888 8.99995 11.6667 8.99995H2.33333C2.01117 8.99995 1.75 8.73879 1.75 8.41662Z" fill="white" fill-opacity="0.7"/>
<path d="M24.24 14H18.576V13.124L20.82 10.856C21.252 10.424 21.616 10.04 21.912 9.704C22.208 9.368 22.432 9.04 22.584 8.72C22.736 8.392 22.812 8.036 22.812 7.652C22.812 7.18 22.672 6.824 22.392 6.584C22.112 6.336 21.748 6.212 21.3 6.212C20.884 6.212 20.516 6.284 20.196 6.428C19.884 6.572 19.564 6.772 19.236 7.028L18.672 6.32C18.896 6.128 19.14 5.956 19.404 5.804C19.676 5.652 19.968 5.532 20.28 5.444C20.6 5.356 20.94 5.312 21.3 5.312C21.836 5.312 22.296 5.404 22.68 5.588C23.064 5.772 23.36 6.036 23.568 6.38C23.784 6.716 23.892 7.12 23.892 7.592C23.892 7.928 23.84 8.248 23.736 8.552C23.632 8.848 23.484 9.14 23.292 9.428C23.1 9.716 22.868 10.008 22.596 10.304C22.324 10.6 22.024 10.908 21.696 11.228L19.908 12.992V13.04H24.24V14ZM28.2872 5.312C28.7912 5.312 29.2352 5.392 29.6192 5.552C30.0032 5.704 30.3032 5.932 30.5192 6.236C30.7432 6.54 30.8552 6.916 30.8552 7.364C30.8552 7.708 30.7792 8.008 30.6272 8.264C30.4832 8.52 30.2872 8.748 30.0392 8.948C29.7912 9.14 29.5192 9.312 29.2232 9.464C29.5752 9.632 29.8952 9.824 30.1832 10.04C30.4712 10.248 30.6992 10.492 30.8672 10.772C31.0432 11.052 31.1312 11.388 31.1312 11.78C31.1312 12.26 31.0152 12.676 30.7832 13.028C30.5512 13.372 30.2232 13.64 29.7992 13.832C29.3832 14.024 28.8912 14.12 28.3232 14.12C27.7072 14.12 27.1832 14.028 26.7512 13.844C26.3272 13.66 26.0032 13.4 25.7792 13.064C25.5632 12.72 25.4552 12.304 25.4552 11.816C25.4552 11.424 25.5352 11.084 25.6952 10.796C25.8632 10.508 26.0832 10.26 26.3552 10.052C26.6272 9.844 26.9192 9.668 27.2312 9.524C26.9512 9.364 26.6952 9.184 26.4632 8.984C26.2392 8.776 26.0592 8.54 25.9232 8.276C25.7952 8.012 25.7312 7.704 25.7312 7.352C25.7312 6.912 25.8432 6.544 26.0672 6.248C26.2912 5.944 26.5952 5.712 26.9792 5.552C27.3632 5.392 27.7992 5.312 28.2872 5.312ZM26.4872 11.828C26.4872 12.244 26.6352 12.592 26.9312 12.872C27.2272 13.144 27.6832 13.28 28.2992 13.28C28.6912 13.28 29.0192 13.216 29.2832 13.088C29.5472 12.96 29.7472 12.784 29.8832 12.56C30.0272 12.336 30.0992 12.08 30.0992 11.792C30.0992 11.512 30.0232 11.268 29.8712 11.06C29.7272 10.844 29.5192 10.652 29.2472 10.484C28.9832 10.316 28.6672 10.164 28.2992 10.028L28.1072 9.956C27.7552 10.108 27.4592 10.272 27.2192 10.448C26.9792 10.624 26.7952 10.824 26.6672 11.048C26.5472 11.272 26.4872 11.532 26.4872 11.828ZM28.2752 6.164C27.8352 6.164 27.4712 6.272 27.1832 6.488C26.9032 6.696 26.7632 7 26.7632 7.4C26.7632 7.696 26.8312 7.944 26.9672 8.144C27.1112 8.344 27.3032 8.516 27.5432 8.66C27.7832 8.796 28.0472 8.928 28.3352 9.056C28.6152 8.936 28.8632 8.804 29.0792 8.66C29.3032 8.516 29.4792 8.344 29.6072 8.144C29.7432 7.936 29.8112 7.688 29.8112 7.4C29.8112 7 29.6712 6.696 29.3912 6.488C29.1112 6.272 28.7392 6.164 28.2752 6.164ZM38.1516 14.12C37.3516 14.12 36.7116 13.844 36.2316 13.292C35.7516 12.732 35.5116 11.9 35.5116 10.796C35.5116 9.692 35.7516 8.86 36.2316 8.3C36.7196 7.732 37.3636 7.448 38.1636 7.448C38.4996 7.448 38.7916 7.492 39.0396 7.58C39.2876 7.66 39.5036 7.772 39.6876 7.916C39.8716 8.06 40.0276 8.22 40.1556 8.396H40.2276C40.2196 8.292 40.2036 8.14 40.1796 7.94C40.1636 7.732 40.1556 7.568 40.1556 7.448V4.88H41.2116V14H40.3596L40.2036 13.136H40.1556C40.0276 13.32 39.8716 13.488 39.6876 13.64C39.5036 13.784 39.2836 13.9 39.0276 13.988C38.7796 14.076 38.4876 14.12 38.1516 14.12ZM38.3196 13.244C38.9996 13.244 39.4756 13.06 39.7476 12.692C40.0276 12.316 40.1676 11.752 40.1676 11V10.808C40.1676 10.008 40.0356 9.396 39.7716 8.972C39.5076 8.54 39.0196 8.324 38.3076 8.324C37.7396 8.324 37.3116 8.552 37.0236 9.008C36.7436 9.456 36.6036 10.06 36.6036 10.82C36.6036 11.588 36.7436 12.184 37.0236 12.608C37.3116 13.032 37.7436 13.244 38.3196 13.244ZM45.7384 7.448C46.2904 7.448 46.7624 7.568 47.1544 7.808C47.5544 8.048 47.8584 8.388 48.0664 8.828C48.2824 9.26 48.3904 9.768 48.3904 10.352V10.988H43.9864C44.0024 11.716 44.1864 12.272 44.5384 12.656C44.8984 13.032 45.3984 13.22 46.0384 13.22C46.4464 13.22 46.8064 13.184 47.1184 13.112C47.4384 13.032 47.7664 12.92 48.1024 12.776V13.7C47.7744 13.844 47.4504 13.948 47.1304 14.012C46.8104 14.084 46.4304 14.12 45.9904 14.12C45.3824 14.12 44.8424 13.996 44.3704 13.748C43.9064 13.5 43.5424 13.132 43.2784 12.644C43.0224 12.148 42.8944 11.544 42.8944 10.832C42.8944 10.128 43.0104 9.524 43.2424 9.02C43.4824 8.516 43.8144 8.128 44.2384 7.856C44.6704 7.584 45.1704 7.448 45.7384 7.448ZM45.7264 8.312C45.2224 8.312 44.8224 8.476 44.5264 8.804C44.2384 9.124 44.0664 9.572 44.0104 10.148H47.2864C47.2864 9.78 47.2304 9.46 47.1184 9.188C47.0064 8.916 46.8344 8.704 46.6024 8.552C46.3784 8.392 46.0864 8.312 45.7264 8.312ZM60.081 14H58.821L54.237 6.884H54.189C54.197 7.028 54.205 7.188 54.213 7.364C54.229 7.54 54.241 7.732 54.249 7.94C54.257 8.14 54.265 8.348 54.273 8.564C54.281 8.78 54.285 8.996 54.285 9.212V14H53.289V5.432H54.537L59.109 12.524H59.157C59.149 12.428 59.141 12.296 59.133 12.128C59.125 11.952 59.117 11.76 59.109 11.552C59.101 11.336 59.093 11.116 59.085 10.892C59.077 10.668 59.073 10.46 59.073 10.268V5.432H60.081V14ZM67.8542 10.772C67.8542 11.308 67.7822 11.784 67.6382 12.2C67.5022 12.608 67.3022 12.956 67.0382 13.244C66.7822 13.532 66.4662 13.752 66.0902 13.904C65.7222 14.048 65.3102 14.12 64.8542 14.12C64.4302 14.12 64.0382 14.048 63.6782 13.904C63.3182 13.752 63.0062 13.532 62.7422 13.244C62.4782 12.956 62.2702 12.608 62.1182 12.2C61.9742 11.784 61.9022 11.308 61.9022 10.772C61.9022 10.06 62.0222 9.46 62.2622 8.972C62.5022 8.476 62.8462 8.1 63.2942 7.844C63.7422 7.58 64.2742 7.448 64.8902 7.448C65.4742 7.448 65.9862 7.58 66.4262 7.844C66.8742 8.1 67.2222 8.476 67.4702 8.972C67.7262 9.46 67.8542 10.06 67.8542 10.772ZM62.9942 10.772C62.9942 11.276 63.0582 11.716 63.1862 12.092C63.3222 12.46 63.5302 12.744 63.8102 12.944C64.0902 13.144 64.4462 13.244 64.8782 13.244C65.3102 13.244 65.6662 13.144 65.9462 12.944C66.2262 12.744 66.4302 12.46 66.5582 12.092C66.6942 11.716 66.7622 11.276 66.7622 10.772C66.7622 10.26 66.6942 9.824 66.5582 9.464C66.4222 9.104 66.2142 8.828 65.9342 8.636C65.6622 8.436 65.3062 8.336 64.8662 8.336C64.2102 8.336 63.7342 8.552 63.4382 8.984C63.1422 9.416 62.9942 10.012 62.9942 10.772ZM70.7094 14L68.2734 7.568H69.4014L70.7694 11.36C70.8334 11.536 70.9014 11.732 70.9734 11.948C71.0454 12.164 71.1094 12.372 71.1654 12.572C71.2214 12.764 71.2614 12.928 71.2854 13.064H71.3334C71.3654 12.928 71.4094 12.76 71.4654 12.56C71.5294 12.36 71.5974 12.152 71.6694 11.936C71.7494 11.72 71.8174 11.528 71.8734 11.36L73.2414 7.568H74.3694L71.9214 14H70.7094Z" fill="white"/>
</svg>
