<svg width="74" height="18" viewBox="0 0 74 18" fill="none" xmlns="http://www.w3.org/2000/svg">
<path fill-rule="evenodd" clip-rule="evenodd" d="M3.5 5.49995C3.17783 5.49995 2.91667 5.76112 2.91667 6.08329V13.0833C2.91667 13.4055 3.17783 13.6666 3.5 13.6666H10.5C10.8222 13.6666 11.0833 13.4055 11.0833 13.0833V6.08329C11.0833 5.76112 10.8222 5.49995 10.5 5.49995H3.5ZM1.75 6.08329C1.75 5.11679 2.5335 4.33329 3.5 4.33329H10.5C11.4665 4.33329 12.25 5.11679 12.25 6.08329V13.0833C12.25 14.0498 11.4665 14.8333 10.5 14.8333H3.5C2.5335 14.8333 1.75 14.0498 1.75 13.0833V6.08329Z" fill="white" fill-opacity="0.7"/>
<path fill-rule="evenodd" clip-rule="evenodd" d="M9.33333 3.16663C9.6555 3.16663 9.91667 3.42779 9.91667 3.74996V6.08329C9.91667 6.40546 9.6555 6.66663 9.33333 6.66663C9.01117 6.66663 8.75 6.40546 8.75 6.08329V3.74996C8.75 3.42779 9.01117 3.16663 9.33333 3.16663Z" fill="white" fill-opacity="0.7"/>
<path fill-rule="evenodd" clip-rule="evenodd" d="M4.66669 3.16663C4.98885 3.16663 5.25002 3.42779 5.25002 3.74996V6.08329C5.25002 6.40546 4.98885 6.66663 4.66669 6.66663C4.34452 6.66663 4.08335 6.40546 4.08335 6.08329V3.74996C4.08335 3.42779 4.34452 3.16663 4.66669 3.16663Z" fill="white" fill-opacity="0.7"/>
<path fill-rule="evenodd" clip-rule="evenodd" d="M1.75 8.41662C1.75 8.09445 2.01117 7.83329 2.33333 7.83329H11.6667C11.9888 7.83329 12.25 8.09445 12.25 8.41662C12.25 8.73879 11.9888 8.99995 11.6667 8.99995H2.33333C2.01117 8.99995 1.75 8.73879 1.75 8.41662Z" fill="white" fill-opacity="0.7"/>
<path d="M22.26 14H21.228V8.012C21.228 7.78 21.228 7.584 21.228 7.424C21.236 7.264 21.244 7.116 21.252 6.98C21.26 6.836 21.268 6.688 21.276 6.536C21.148 6.664 21.032 6.772 20.928 6.86C20.824 6.948 20.692 7.06 20.532 7.196L19.62 7.94L19.068 7.232L21.384 5.432H22.26V14ZM28.1672 8.744C28.7512 8.744 29.2592 8.844 29.6912 9.044C30.1232 9.244 30.4552 9.532 30.6872 9.908C30.9272 10.276 31.0472 10.728 31.0472 11.264C31.0472 11.856 30.9192 12.368 30.6632 12.8C30.4072 13.224 30.0392 13.552 29.5592 13.784C29.0872 14.008 28.5152 14.12 27.8432 14.12C27.4032 14.12 26.9872 14.08 26.5952 14C26.2112 13.92 25.8872 13.804 25.6232 13.652V12.656C25.9112 12.832 26.2592 12.972 26.6672 13.076C27.0832 13.172 27.4792 13.22 27.8552 13.22C28.2792 13.22 28.6472 13.156 28.9592 13.028C29.2792 12.892 29.5272 12.688 29.7032 12.416C29.8792 12.136 29.9672 11.788 29.9672 11.372C29.9672 10.812 29.7952 10.384 29.4512 10.088C29.1072 9.784 28.5632 9.632 27.8192 9.632C27.5952 9.632 27.3392 9.652 27.0512 9.692C26.7632 9.732 26.5312 9.772 26.3552 9.812L25.8272 9.476L26.1512 5.432H30.4472V6.392H27.0512L26.8472 8.876C26.9832 8.852 27.1672 8.824 27.3992 8.792C27.6312 8.76 27.8872 8.744 28.1672 8.744ZM38.1516 14.12C37.3516 14.12 36.7116 13.844 36.2316 13.292C35.7516 12.732 35.5116 11.9 35.5116 10.796C35.5116 9.692 35.7516 8.86 36.2316 8.3C36.7196 7.732 37.3636 7.448 38.1636 7.448C38.4996 7.448 38.7916 7.492 39.0396 7.58C39.2876 7.66 39.5036 7.772 39.6876 7.916C39.8716 8.06 40.0276 8.22 40.1556 8.396H40.2276C40.2196 8.292 40.2036 8.14 40.1796 7.94C40.1636 7.732 40.1556 7.568 40.1556 7.448V4.88H41.2116V14H40.3596L40.2036 13.136H40.1556C40.0276 13.32 39.8716 13.488 39.6876 13.64C39.5036 13.784 39.2836 13.9 39.0276 13.988C38.7796 14.076 38.4876 14.12 38.1516 14.12ZM38.3196 13.244C38.9996 13.244 39.4756 13.06 39.7476 12.692C40.0276 12.316 40.1676 11.752 40.1676 11V10.808C40.1676 10.008 40.0356 9.396 39.7716 8.972C39.5076 8.54 39.0196 8.324 38.3076 8.324C37.7396 8.324 37.3116 8.552 37.0236 9.008C36.7436 9.456 36.6036 10.06 36.6036 10.82C36.6036 11.588 36.7436 12.184 37.0236 12.608C37.3116 13.032 37.7436 13.244 38.3196 13.244ZM45.7384 7.448C46.2904 7.448 46.7624 7.568 47.1544 7.808C47.5544 8.048 47.8584 8.388 48.0664 8.828C48.2824 9.26 48.3904 9.768 48.3904 10.352V10.988H43.9864C44.0024 11.716 44.1864 12.272 44.5384 12.656C44.8984 13.032 45.3984 13.22 46.0384 13.22C46.4464 13.22 46.8064 13.184 47.1184 13.112C47.4384 13.032 47.7664 12.92 48.1024 12.776V13.7C47.7744 13.844 47.4504 13.948 47.1304 14.012C46.8104 14.084 46.4304 14.12 45.9904 14.12C45.3824 14.12 44.8424 13.996 44.3704 13.748C43.9064 13.5 43.5424 13.132 43.2784 12.644C43.0224 12.148 42.8944 11.544 42.8944 10.832C42.8944 10.128 43.0104 9.524 43.2424 9.02C43.4824 8.516 43.8144 8.128 44.2384 7.856C44.6704 7.584 45.1704 7.448 45.7384 7.448ZM45.7264 8.312C45.2224 8.312 44.8224 8.476 44.5264 8.804C44.2384 9.124 44.0664 9.572 44.0104 10.148H47.2864C47.2864 9.78 47.2304 9.46 47.1184 9.188C47.0064 8.916 46.8344 8.704 46.6024 8.552C46.3784 8.392 46.0864 8.312 45.7264 8.312ZM60.153 9.632C60.153 10.592 59.973 11.396 59.613 12.044C59.261 12.692 58.753 13.18 58.089 13.508C57.425 13.836 56.621 14 55.677 14H53.289V5.432H55.929C56.793 5.432 57.541 5.592 58.173 5.912C58.805 6.232 59.293 6.704 59.637 7.328C59.981 7.944 60.153 8.712 60.153 9.632ZM59.013 9.668C59.013 8.908 58.885 8.284 58.629 7.796C58.381 7.308 58.013 6.948 57.525 6.716C57.045 6.476 56.461 6.356 55.773 6.356H54.369V13.076H55.533C56.693 13.076 57.561 12.792 58.137 12.224C58.721 11.648 59.013 10.796 59.013 9.668ZM64.3946 7.448C64.9466 7.448 65.4186 7.568 65.8106 7.808C66.2106 8.048 66.5146 8.388 66.7226 8.828C66.9386 9.26 67.0466 9.768 67.0466 10.352V10.988H62.6426C62.6586 11.716 62.8426 12.272 63.1946 12.656C63.5546 13.032 64.0546 13.22 64.6946 13.22C65.1026 13.22 65.4626 13.184 65.7746 13.112C66.0946 13.032 66.4226 12.92 66.7586 12.776V13.7C66.4306 13.844 66.1066 13.948 65.7866 14.012C65.4666 14.084 65.0866 14.12 64.6466 14.12C64.0386 14.12 63.4986 13.996 63.0266 13.748C62.5626 13.5 62.1986 13.132 61.9346 12.644C61.6786 12.148 61.5506 11.544 61.5506 10.832C61.5506 10.128 61.6666 9.524 61.8986 9.02C62.1386 8.516 62.4706 8.128 62.8946 7.856C63.3266 7.584 63.8266 7.448 64.3946 7.448ZM64.3826 8.312C63.8786 8.312 63.4786 8.476 63.1826 8.804C62.8946 9.124 62.7226 9.572 62.6666 10.148H65.9426C65.9426 9.78 65.8866 9.46 65.7746 9.188C65.6626 8.916 65.4906 8.704 65.2586 8.552C65.0346 8.392 64.7426 8.312 64.3826 8.312ZM72.7189 14H68.0149V13.304L71.4709 8.384H68.2189V7.568H72.6349V8.36L69.2269 13.184H72.7189V14Z" fill="white"/>
</svg>
