<svg width="24" height="24" viewBox="0 0 24 24" fill="none" xmlns="http://www.w3.org/2000/svg">
<path fill-rule="evenodd" clip-rule="evenodd" d="M12 8.99975C10.8954 8.99975 9.99998 9.89518 9.99998 10.9997C9.99998 12.1043 10.8954 12.9997 12 12.9997C13.1045 12.9997 14 12.1043 14 10.9997C14 9.89518 13.1045 8.99975 12 8.99975ZM7.99998 10.9997C7.99998 8.79061 9.79084 6.99975 12 6.99975C14.2091 6.99975 16 8.79061 16 10.9997C16 13.2089 14.2091 14.9997 12 14.9997C9.79084 14.9997 7.99998 13.2089 7.99998 10.9997Z" fill="black"/>
<path fill-rule="evenodd" clip-rule="evenodd" d="M12 4C10.6156 4 9.26219 4.41053 8.11105 5.17969C6.95991 5.94884 6.06271 7.04207 5.53288 8.32113C5.00306 9.60019 4.86441 11.0076 5.13448 12.3655C5.40455 13.7234 6.0712 14.9706 7.05013 15.9496L11.2938 20.1922C11.4813 20.3796 11.7355 20.4848 12.0005 20.4848C12.2655 20.4848 12.5197 20.3796 12.7073 20.1922L16.9499 15.9496C17.9288 14.9706 18.5955 13.7233 18.8655 12.3655C19.1356 11.0076 18.997 9.60019 18.4671 8.32113C17.9373 7.04207 17.0401 5.94884 15.889 5.17969C14.7378 4.41053 13.3845 4 12 4ZM18.3641 17.3638C19.6228 16.1051 20.4799 14.5015 20.8271 12.7556C21.1743 11.0098 20.9961 9.20025 20.3149 7.55574C19.6337 5.91123 18.4801 4.50565 17.0001 3.51674C15.5201 2.52783 13.78 2 12 2C10.22 2 8.47995 2.52783 6.99992 3.51674C5.51989 4.50565 4.36633 5.91123 3.68513 7.55574C3.00393 9.20025 2.82567 11.0098 3.1729 12.7556C3.52013 14.5015 4.37725 16.1051 5.63588 17.3638L9.87998 21.6069C10.4425 22.1688 11.2054 22.4848 12.0005 22.4848C12.7956 22.4848 13.5582 22.1691 14.1208 21.6072L18.3641 17.3638Z" fill="black"/>
</svg>
