<svg width="36" height="36" viewBox="0 0 36 36" fill="none" xmlns="http://www.w3.org/2000/svg">
<rect width="36" height="36" rx="6" fill="#FD5631"/>
<path fill-rule="evenodd" clip-rule="evenodd" d="M24.4711 11.5273C24.7315 11.7877 24.7315 12.2098 24.4711 12.4701L17.1378 19.8035C16.8774 20.0638 16.4553 20.0638 16.195 19.8035C15.9346 19.5431 15.9346 19.121 16.195 18.8606L23.5283 11.5273C23.7887 11.267 24.2108 11.267 24.4711 11.5273Z" fill="white"/>
<path fill-rule="evenodd" clip-rule="evenodd" d="M24.4711 11.5273C24.6539 11.7101 24.7145 11.982 24.6268 12.2251L20.2934 24.2251C20.2871 24.2425 20.2801 24.2596 20.2724 24.2764C20.19 24.4563 20.0577 24.6088 19.8912 24.7156C19.7246 24.8225 19.5309 24.8793 19.3331 24.8793C19.1352 24.8793 18.9415 24.8225 18.775 24.7156C18.6124 24.6113 18.4824 24.4636 18.3997 24.2893L16.1695 19.829L11.7091 17.5988C11.5348 17.516 11.3871 17.386 11.2828 17.2235C11.1759 17.057 11.1191 16.8632 11.1191 16.6654C11.1191 16.4675 11.1759 16.2738 11.2828 16.1073C11.3897 15.9408 11.5421 15.8084 11.722 15.726C11.7388 15.7183 11.7559 15.7113 11.7733 15.705L23.7733 11.3717C24.0164 11.2839 24.2883 11.3445 24.4711 11.5273ZM12.9142 16.7106L16.9645 18.7358C17.0935 18.8003 17.1982 18.9049 17.2627 19.0339L19.2878 23.0842L22.8903 13.1081L12.9142 16.7106Z" fill="white"/>
</svg>
